# xmcd
#
# Track frame offsets:
#	150
#	61264
#	74910
#	85315
#	94701
#	113311
#	132816
#	153624
#	167231
#	211581
#	225188
#	239074
#	255761
#	287791
#
# Disc length: 4392 seconds
#
# Revision: 1
# Processed by: cddbd v1.5.2PL0 Copyright (c) Steve Scherf et al.
# Submitted via: audiograbber 1.83.01
#
DISCID=b711260e
DTITLE=–œ’À«” À≈’‘≈—«” - –¡Õ«√’—…¡ ”‘«Õ … ¡—…¡
DYEAR=2009
DGENRE=
TTITLE0=ikariotiko
TTITLE1=ntari
TTITLE2=poios
TTITLE3=sousta
TTITLE4=ballos
TTITLE5=tzivaeri
TTITLE6=koupes
TTITLE7=sala
TTITLE8=se kainourgia varka
TTITLE9=mesopelaga
TTITLE10=petalakia
TTITLE11=karfitsa
TTITLE12=milo mou
TTITLE13=ikariotikos
EXTD=
EXTT0=
EXTT1=
EXTT2=
EXTT3=
EXTT4=
EXTT5=
EXTT6=
EXTT7=
EXTT8=
EXTT9=
EXTT10=
EXTT11=
EXTT12=
EXTT13=
PLAYORDER=
